<?xml version="1.0" encoding="UTF-8"?>
<svg width="1000px" height="1000px" viewBox="0 0 1000 1000" version="1.1" xmlns="http://www.w3.org/2000/svg" xmlns:xlink="http://www.w3.org/1999/xlink">
    <title>404 Pattern</title>
    <g id="404-Pattern" stroke="none" stroke-width="1" fill="none" fill-rule="evenodd">
        <g id="Pattern" fill="#1A237E" fill-rule="nonzero">
            <circle cx="100" cy="100" r="10"></circle>
            <circle cx="300" cy="100" r="10"></circle>
            <circle cx="500" cy="100" r="10"></circle>
            <circle cx="700" cy="100" r="10"></circle>
            <circle cx="900" cy="100" r="10"></circle>
            <circle cx="200" cy="200" r="10"></circle>
            <circle cx="400" cy="200" r="10"></circle>
            <circle cx="600" cy="200" r="10"></circle>
            <circle cx="800" cy="200" r="10"></circle>
            <circle cx="100" cy="300" r="10"></circle>
            <circle cx="300" cy="300" r="10"></circle>
            <circle cx="500" cy="300" r="10"></circle>
            <circle cx="700" cy="300" r="10"></circle>
            <circle cx="900" cy="300" r="10"></circle>
            <circle cx="200" cy="400" r="10"></circle>
            <circle cx="400" cy="400" r="10"></circle>
            <circle cx="600" cy="400" r="10"></circle>
            <circle cx="800" cy="400" r="10"></circle>
            <circle cx="100" cy="500" r="10"></circle>
            <circle cx="300" cy="500" r="10"></circle>
            <circle cx="500" cy="500" r="10"></circle>
            <circle cx="700" cy="500" r="10"></circle>
            <circle cx="900" cy="500" r="10"></circle>
            <circle cx="200" cy="600" r="10"></circle>
            <circle cx="400" cy="600" r="10"></circle>
            <circle cx="600" cy="600" r="10"></circle>
            <circle cx="800" cy="600" r="10"></circle>
            <circle cx="100" cy="700" r="10"></circle>
            <circle cx="300" cy="700" r="10"></circle>
            <circle cx="500" cy="700" r="10"></circle>
            <circle cx="700" cy="700" r="10"></circle>
            <circle cx="900" cy="700" r="10"></circle>
            <circle cx="200" cy="800" r="10"></circle>
            <circle cx="400" cy="800" r="10"></circle>
            <circle cx="600" cy="800" r="10"></circle>
            <circle cx="800" cy="800" r="10"></circle>
            <circle cx="100" cy="900" r="10"></circle>
            <circle cx="300" cy="900" r="10"></circle>
            <circle cx="500" cy="900" r="10"></circle>
            <circle cx="700" cy="900" r="10"></circle>
            <circle cx="900" cy="900" r="10"></circle>
        </g>
    </g>
</svg>
