<?xml version="1.0" encoding="UTF-8"?>
<svg width="40px" height="24px" viewBox="0 0 40 24" version="1.1" xmlns="http://www.w3.org/2000/svg" xmlns:xlink="http://www.w3.org/1999/xlink">
    <title>Apple Pay</title>
    <g id="Page-1" stroke="none" stroke-width="1" fill="none" fill-rule="evenodd">
        <g id="apple-pay" fill-rule="nonzero">
            <rect id="Rectangle" fill="#FFFFFF" x="0" y="0" width="40" height="24" rx="4"></rect>
            <path d="M8.02,9.93 C7.8,10.17 7.47,10.37 7.14,10.34 C7.1,10.01 7.24,9.66 7.44,9.43 C7.66,9.18 8.02,8.99 8.32,8.99 C8.35,9.33 8.24,9.67 8.02,9.93 Z M8.32,10.47 C7.84,10.44 7.42,10.7 7.19,10.7 C6.96,10.7 6.61,10.49 6.22,10.5 C5.71,10.51 5.24,10.79 5,11.24 C4.5,12.14 4.87,13.47 5.35,14.25 C5.58,14.63 5.87,15.05 6.25,15.04 C6.6,15.03 6.75,14.81 7.17,14.81 C7.59,14.81 7.72,15.04 8.09,15.03 C8.48,15.02 8.73,14.64 8.96,14.26 C9.22,13.83 9.33,13.41 9.34,13.39 C9.33,13.38 8.64,13.12 8.63,12.23 C8.62,11.48 9.17,11.16 9.2,11.14 C8.89,10.67 8.4,10.49 8.32,10.47 Z M11.77,9.06 L11.77,15 L12.54,15 L12.54,12.93 L13.72,12.93 C14.76,12.93 15.51,12.19 15.51,11.15 C15.51,10.11 14.77,9.36 13.74,9.36 L11.77,9.06 Z M12.54,9.73 L13.53,9.73 C14.23,9.73 14.72,10.19 14.72,10.99 C14.72,11.79 14.23,12.26 13.52,12.26 L12.54,12.26 L12.54,9.73 Z M17.44,15.05 C18.07,15.05 18.65,14.71 18.9,14.17 L18.9,15 L19.63,15 L19.63,11.95 C19.63,11.12 19.03,10.56 18.07,10.56 C17.17,10.56 16.51,11.12 16.48,11.87 L17.19,11.87 C17.24,11.45 17.57,11.17 18.05,11.17 C18.63,11.17 18.9,11.48 18.9,11.95 L18.9,12.28 L17.93,12.35 C16.95,12.42 16.42,12.84 16.42,13.56 C16.42,14.29 16.84,15.05 17.44,15.05 Z M17.62,14.43 C17.14,14.43 16.8,14.08 16.8,13.6 C16.8,13.1 17.12,12.85 17.81,12.8 L18.9,12.73 L18.9,13.13 C18.9,13.87 18.35,14.43 17.62,14.43 Z M22.69,15.05 C23.06,15.05 23.4,14.95 23.59,14.8 L23.59,14.14 C23.41,14.26 23.15,14.34 22.87,14.34 C22.43,14.34 22.2,14.09 22.2,13.64 L22.2,11.27 L23.59,11.27 L23.59,10.62 L22.2,10.62 L22.2,9.62 L21.47,9.62 L21.47,10.62 L20.71,10.62 L20.71,11.27 L21.47,11.27 L21.47,13.71 C21.47,14.56 21.92,15.05 22.69,15.05 Z M26.92,15.05 C28.09,15.05 28.87,14.25 28.87,13.05 C28.87,11.86 28.09,11.06 26.92,11.06 C25.75,11.06 24.97,11.86 24.97,13.05 C24.97,14.25 25.75,15.05 26.92,15.05 Z M26.92,14.4 C26.18,14.4 25.71,13.87 25.71,13.05 C25.71,12.24 26.18,11.71 26.92,11.71 C27.66,11.71 28.13,12.24 28.13,13.05 C28.13,13.87 27.66,14.4 26.92,14.4 Z M31.55,15.05 C32.18,15.05 32.76,14.71 33.01,14.17 L33.01,15 L33.74,15 L33.74,11.95 C33.74,11.12 33.14,10.56 32.18,10.56 C31.28,10.56 30.62,11.12 30.59,11.87 L31.3,11.87 C31.35,11.45 31.68,11.17 32.16,11.17 C32.74,11.17 33.01,11.48 33.01,11.95 L33.01,12.28 L32.04,12.35 C31.06,12.42 30.53,12.84 30.53,13.56 C30.53,14.29 30.95,15.05 31.55,15.05 Z M31.73,14.43 C31.25,14.43 30.91,14.08 30.91,13.6 C30.91,13.1 31.23,12.85 31.92,12.8 L33.01,12.73 L33.01,13.13 C33.01,13.87 32.46,14.43 31.73,14.43 Z" id="Shape" fill="#000000"></path>
        </g>
    </g>
</svg>
