<?xml version="1.0" encoding="UTF-8"?>
<svg width="40px" height="24px" viewBox="0 0 40 24" version="1.1" xmlns="http://www.w3.org/2000/svg" xmlns:xlink="http://www.w3.org/1999/xlink">
    <title>Discover</title>
    <g id="Page-1" stroke="none" stroke-width="1" fill="none" fill-rule="evenodd">
        <g id="discover" fill-rule="nonzero">
            <rect id="Rectangle" fill="#FFFFFF" x="0" y="0" width="40" height="24" rx="4"></rect>
            <path d="M28.5,15.2 C27.1,15.2 26,14.1 26,12.7 C26,11.3 27.1,10.2 28.5,10.2 C29.9,10.2 31,11.3 31,12.7 C31,14.1 29.9,15.2 28.5,15.2 Z" id="Path" fill="#F27712"></path>
            <path d="M12.6,10.3 L12.6,14.9 L14.1,14.9 C14.7,14.9 15.1,14.8 15.5,14.6 C16.1,14.3 16.5,13.6 16.5,12.6 C16.5,11.9 16.3,11.3 15.9,10.9 C15.5,10.5 14.9,10.3 14,10.3 L12.6,10.3 Z M13.5,11.1 L13.9,11.1 C14.4,11.1 14.7,11.2 15,11.4 C15.3,11.7 15.5,12.1 15.5,12.6 C15.5,13.4 15.1,13.9 14.4,14.1 C14.1,14.2 13.8,14.2 13.3,14.2 L13.5,14.2 L13.5,11.1 Z M17.1,10.3 L17.1,14.9 L18,14.9 L18,10.3 L17.1,10.3 Z M21.5,11.8 C21,11.4 20.7,11.3 20.2,11.3 C19.3,11.3 18.6,12 18.6,13 C18.6,14 19.3,14.7 20.3,14.7 C20.8,14.7 21.1,14.6 21.5,14.2 L21.5,14.9 L22.4,14.9 L22.4,10.3 L21.5,10.3 L21.5,11.8 Z M19.5,13 C19.5,12.5 19.9,12.1 20.4,12.1 C20.9,12.1 21.3,12.5 21.3,13 C21.3,13.5 20.9,13.9 20.4,13.9 C19.9,13.9 19.5,13.5 19.5,13 Z M33.4,13.3 L32.2,10.3 L31.2,10.3 L33.1,14.9 L33.6,14.9 L35.6,10.3 L34.6,10.3 L33.4,13.3 Z M8.8,10.3 L7.3,14.9 L8.2,14.9 L8.6,13.7 L10.2,13.7 L10.6,14.9 L11.6,14.9 L10.1,10.3 L8.8,10.3 Z M8.8,12.9 L9.4,11.2 L10,12.9 L8.8,12.9 Z M24.3,10.3 L23.4,10.3 L23.4,14.9 L26.2,14.9 L26.2,14.1 L24.3,14.1 L24.3,10.3 Z" id="Shape" fill="#000000"></path>
            <path d="M36.1,12.1 C36.1,13.5 35.1,14.7 33.3,14.7 C31.5,14.7 30.5,13.5 30.5,12.1 L30.5,10.3 L31.4,10.3 L31.4,12.1 C31.4,13 32,13.9 33.3,13.9 C34.6,13.9 35.2,13 35.2,12.1 L35.2,10.3 L36.1,10.3 L36.1,12.1 Z" id="Path" fill="#000000"></path>
            <path d="M4,9.5 L4,15.9 C8.1,15.9 12.2,15.9 16.3,15.9 C15.7,15.3 15.3,14.5 15.2,13.6 C15.1,12.7 15.3,11.8 15.8,11 C16.3,10.2 17.1,9.7 18,9.5 L4,9.5 Z" id="Path" fill="#F27712"></path>
        </g>
    </g>
</svg>
