<?xml version="1.0" encoding="UTF-8"?>
<svg width="40px" height="24px" viewBox="0 0 40 24" version="1.1" xmlns="http://www.w3.org/2000/svg" xmlns:xlink="http://www.w3.org/1999/xlink">
    <title>Visa</title>
    <g id="Page-1" stroke="none" stroke-width="1" fill="none" fill-rule="evenodd">
        <g id="visa" fill-rule="nonzero">
            <rect id="Rectangle" fill="#FFFFFF" x="0" y="0" width="40" height="24" rx="4"></rect>
            <path d="M16.4,15.3 L17.7,8.7 L19.6,8.7 L18.3,15.3 L16.4,15.3 Z M26.5,8.9 C26,8.7 25.3,8.5 24.5,8.5 C22.4,8.5 21,9.6 21,11.1 C21,12.2 22,12.8 22.8,13.2 C23.5,13.5 23.8,13.8 23.8,14.1 C23.8,14.6 23.2,14.8 22.6,14.8 C21.8,14.8 21.3,14.7 20.6,14.3 L20.3,14.2 L20,15.8 C20.6,16.1 21.6,16.3 22.6,16.3 C24.8,16.3 26.2,15.2 26.2,13.6 C26.2,12.7 25.6,12 24.5,11.5 C23.8,11.2 23.4,11 23.4,10.6 C23.4,10.3 23.7,10 24.4,10 C25,10 25.5,10.1 25.9,10.3 L26.1,10.4 L26.5,8.9 Z M31.4,8.7 L29.7,8.7 C29.2,8.7 28.8,8.8 28.6,9.3 L25.4,15.3 L27.6,15.3 L28.1,14 L30.7,14 C30.8,14.4 31,15.3 31,15.3 L33,15.3 L31.4,8.7 Z M28.7,12.5 L29.7,10 C29.7,10 29.9,9.5 30,9.2 L30.1,9.9 C30.1,9.9 30.5,11.8 30.6,12.5 L28.7,12.5 Z M14.1,8.7 L12,13.1 L11.7,11.8 C11.2,10.6 10,9.5 8.7,8.9 L10.6,15.3 L12.9,15.3 L16.4,8.7 L14.1,8.7 Z" id="Shape" fill="#172B85"></path>
            <path d="M9.5,8.7 L6.1,8.7 L6,8.9 C8.8,9.6 10.7,11.6 11.4,13.8 L10.7,9.3 C10.6,8.8 10.1,8.7 9.5,8.7 Z" id="Path" fill="#F9A51A"></path>
        </g>
    </g>
</svg>
