<?xml version="1.0" encoding="UTF-8"?>
<svg width="80px" height="80px" viewBox="0 0 80 80" version="1.1" xmlns="http://www.w3.org/2000/svg" xmlns:xlink="http://www.w3.org/1999/xlink">
    <title>Dairy</title>
    <g id="Dairy" stroke="none" stroke-width="1" fill="none" fill-rule="evenodd">
        <circle id="Background" fill="#F3E5F5" cx="40" cy="40" r="40"></circle>
        <g id="Dairy-Products" transform="translate(15.000000, 15.000000)" fill-rule="nonzero">
            <path d="M15,0 L25,0 L25,5 L15,5 L15,0 Z" id="Milk-Cap" fill="#1A237E"></path>
            <path d="M10,5 L30,5 L30,45 L10,45 L10,5 Z" id="Milk-Carton" fill="#FFFFFF"></path>
            <path d="M15,10 L25,10 L25,40 L15,40 L15,10 Z" id="Milk-Label" fill="#E0E0E0"></path>
            <path d="M17.5,15 L22.5,15 L22.5,20 L17.5,20 L17.5,15 Z" id="Label-Text1" fill="#1A237E"></path>
            <path d="M17.5,25 L22.5,25 L22.5,30 L17.5,30 L17.5,25 Z" id="Label-Text2" fill="#1A237E"></path>
            <path d="M40,10 C35,10 30,15 30,20 C30,25 35,30 40,30 C45,30 50,25 50,20 C50,15 45,10 40,10 Z" id="Cheese-Wheel" fill="#FFF59D"></path>
            <path d="M40,15 C37.5,15 35,17.5 35,20 C35,22.5 37.5,25 40,25 C42.5,25 45,22.5 45,20 C45,17.5 42.5,15 40,15 Z" id="Cheese-Center" fill="#FFF176"></path>
            <path d="M42.5,15 C41.5,15 40.5,16 40.5,17 C40.5,18 41.5,19 42.5,19 C43.5,19 44.5,18 44.5,17 C44.5,16 43.5,15 42.5,15 Z" id="Cheese-Hole1" fill="#FFF9C4"></path>
            <path d="M37.5,20 C36.5,20 35.5,21 35.5,22 C35.5,23 36.5,24 37.5,24 C38.5,24 39.5,23 39.5,22 C39.5,21 38.5,20 37.5,20 Z" id="Cheese-Hole2" fill="#FFF9C4"></path>
            <path d="M35,35 L45,35 L45,50 L35,50 L35,35 Z" id="Butter-Stick" fill="#FFEE58"></path>
            <path d="M35,35 L45,35 L45,40 L35,40 L35,35 Z" id="Butter-Top" fill="#FDD835"></path>
            <path d="M15,50 C10,50 5,55 5,60 L35,60 C35,55 30,50 25,50 L15,50 Z" id="Yogurt-Cup" fill="#D1C4E9"></path>
            <path d="M15,50 L25,50 L25,55 L15,55 L15,50 Z" id="Yogurt-Label" fill="#7E57C2"></path>
            <path d="M40,40 C35,40 30,45 30,50 L50,50 C50,45 45,40 40,40 Z" id="Ice-Cream-Cone" fill="#D7CCC8"></path>
            <path d="M40,35 C35,35 30,40 30,45 L50,45 C50,40 45,35 40,35 Z" id="Ice-Cream-Scoop" fill="#F8BBD0"></path>
        </g>
    </g>
</svg>
