<?xml version="1.0" encoding="UTF-8"?>
<svg width="80px" height="80px" viewBox="0 0 80 80" version="1.1" xmlns="http://www.w3.org/2000/svg" xmlns:xlink="http://www.w3.org/1999/xlink">
    <title>Fruits</title>
    <g id="Fruits" stroke="none" stroke-width="1" fill="none" fill-rule="evenodd">
        <circle id="Background" fill="#FFECB3" cx="40" cy="40" r="40"></circle>
        <g id="Apple" transform="translate(20.000000, 15.000000)" fill-rule="nonzero">
            <path d="M30,20 C30,13.3726 24.6274,8 18,8 C11.3726,8 6,13.3726 6,20 C6,26.6274 11.3726,32 18,32 C24.6274,32 30,26.6274 30,20 Z" id="Body" fill="#FF5252"></path>
            <path d="M18,0 C16.8954,0 16,0.8954 16,2 L16,8 C16,9.1046 16.8954,10 18,10 C19.1046,10 20,9.1046 20,8 L20,2 C20,0.8954 19.1046,0 18,0 Z" id="Stem" fill="#795548"></path>
            <path d="M24,4 C22.8954,4 22,4.8954 22,6 C22,7.1046 22.8954,8 24,8 C25.1046,8 26,7.1046 26,6 C26,4.8954 25.1046,4 24,4 Z" id="Leaf" fill="#4CAF50"></path>
            <path d="M36,20 C36,13.3726 30.6274,8 24,8 C17.3726,8 12,13.3726 12,20 C12,26.6274 17.3726,32 24,32 C30.6274,32 36,26.6274 36,20 Z" id="Body" fill="#FF5252"></path>
            <path d="M24,0 C22.8954,0 22,0.8954 22,2 L22,8 C22,9.1046 22.8954,10 24,10 C25.1046,10 26,9.1046 26,8 L26,2 C26,0.8954 25.1046,0 24,0 Z" id="Stem" fill="#795548"></path>
            <path d="M30,4 C28.8954,4 28,4.8954 28,6 C28,7.1046 28.8954,8 30,8 C31.1046,8 32,7.1046 32,6 C32,4.8954 31.1046,4 30,4 Z" id="Leaf" fill="#4CAF50"></path>
            <path d="M18,36 C18,42.6274 23.3726,48 30,48 C36.6274,48 42,42.6274 42,36 C42,29.3726 36.6274,24 30,24 C23.3726,24 18,29.3726 18,36 Z" id="Body" fill="#FFCA28"></path>
            <path d="M30,16 C28.8954,16 28,16.8954 28,18 L28,24 C28,25.1046 28.8954,26 30,26 C31.1046,26 32,25.1046 32,24 L32,18 C32,16.8954 31.1046,16 30,16 Z" id="Stem" fill="#795548"></path>
            <path d="M36,20 C34.8954,20 34,20.8954 34,22 C34,23.1046 34.8954,24 36,24 C37.1046,24 38,23.1046 38,22 C38,20.8954 37.1046,20 36,20 Z" id="Leaf" fill="#4CAF50"></path>
        </g>
    </g>
</svg>
