<?xml version="1.0" encoding="UTF-8"?>
<svg width="80px" height="80px" viewBox="0 0 80 80" version="1.1" xmlns="http://www.w3.org/2000/svg" xmlns:xlink="http://www.w3.org/1999/xlink">
    <title>Vegetables</title>
    <g id="Vegetables" stroke="none" stroke-width="1" fill="none" fill-rule="evenodd">
        <circle id="Background" fill="#E8F5E9" cx="40" cy="40" r="40"></circle>
        <g id="Vegetables" transform="translate(15.000000, 15.000000)" fill-rule="nonzero">
            <path d="M25,0 C19.4772,0 15,4.4772 15,10 L15,40 C15,45.5228 19.4772,50 25,50 C30.5228,50 35,45.5228 35,40 L35,10 C35,4.4772 30.5228,0 25,0 Z" id="Carrot" fill="#FF7043"></path>
            <path d="M25,0 C22.7909,0 21,1.7909 21,4 L21,8 C21,10.2091 22.7909,12 25,12 C27.2091,12 29,10.2091 29,8 L29,4 C29,1.7909 27.2091,0 25,0 Z" id="Carrot-Top" fill="#4CAF50"></path>
            <path d="M10,20 C4.4772,20 0,24.4772 0,30 C0,35.5228 4.4772,40 10,40 C15.5228,40 20,35.5228 20,30 C20,24.4772 15.5228,20 10,20 Z" id="Tomato" fill="#F44336"></path>
            <path d="M10,20 C8.8954,20 8,20.8954 8,22 L8,24 C8,25.1046 8.8954,26 10,26 C11.1046,26 12,25.1046 12,24 L12,22 C12,20.8954 11.1046,20 10,20 Z" id="Tomato-Stem" fill="#4CAF50"></path>
            <path d="M40,20 C34.4772,20 30,24.4772 30,30 C30,35.5228 34.4772,40 40,40 C45.5228,40 50,35.5228 50,30 C50,24.4772 45.5228,20 40,20 Z" id="Broccoli" fill="#4CAF50"></path>
            <path d="M40,20 C38.8954,20 38,20.8954 38,22 L38,24 C38,25.1046 38.8954,26 40,26 C41.1046,26 42,25.1046 42,24 L42,22 C42,20.8954 41.1046,20 40,20 Z" id="Broccoli-Stem" fill="#8D6E63"></path>
        </g>
    </g>
</svg>
