<svg version="1.1" id="Layer_1" xmlns="http://www.w3.org/2000/svg" xmlns:xlink="http://www.w3.org/1999/xlink" x="0px" y="0px"
	 width="100%" viewBox="0 0 576 384" enable-background="new 0 0 576 384" xml:space="preserve">
<path fill="#FEFEFD" opacity="1.000000" stroke="none" 
	d="
M415.000000,385.000000 
	C276.666656,385.000000 138.833328,385.000000 1.000000,385.000000 
	C1.000000,257.000000 1.000000,129.000000 1.000000,1.000000 
	C193.000000,1.000000 385.000000,1.000000 577.000000,1.000000 
	C577.000000,129.000000 577.000000,257.000000 577.000000,385.000000 
	C523.166687,385.000000 469.333344,385.000000 415.000000,385.000000 
M194.856903,171.725006 
	C195.104858,171.990204 195.352798,172.255402 195.630020,172.821457 
	C195.630020,172.821457 195.837189,173.041580 195.886353,173.710083 
	C196.532639,174.530853 197.178925,175.351639 197.979980,176.080551 
	C197.979980,176.080551 197.807434,176.131744 197.867477,176.821182 
	C198.805893,178.844986 199.574921,181.370667 202.135834,178.294907 
	C202.135834,178.294907 202.223557,178.250092 202.756943,178.123077 
	C202.992401,177.849899 203.227859,177.576721 203.989807,177.190063 
	C204.293182,177.002579 204.596558,176.815079 205.558319,176.676346 
	C209.677200,173.777664 209.631668,173.229904 204.815750,169.550613 
	C204.644073,169.261749 204.398148,169.066284 203.920639,168.456833 
	C203.633118,168.264267 203.345596,168.071701 202.895416,167.455276 
	C202.730530,167.184387 202.497589,166.999039 202.011917,166.378769 
	C201.721130,166.164566 201.430328,165.950348 201.000259,165.370361 
	C201.000259,165.370361 200.720200,165.096939 200.611038,164.533707 
	C200.138290,164.227875 199.665543,163.922058 199.072739,163.294052 
	C199.072739,163.294052 198.817200,163.064011 198.777832,162.406708 
	C197.527023,161.255020 196.276230,160.103333 194.726532,158.363327 
	C192.769196,156.259888 190.811859,154.156448 188.798813,151.397751 
	C187.550140,150.233398 186.301468,149.069046 184.874023,147.475555 
	C184.691925,147.212631 184.452759,147.020859 183.988510,146.407669 
	C183.706528,146.222092 183.424561,146.036530 183.154938,145.904587 
	C183.154938,145.904587 183.161377,145.839401 183.053696,145.167007 
	C178.462463,139.972137 173.871231,134.777267 169.279984,129.582413 
	C168.864151,129.910995 168.448334,130.239563 168.032501,130.568146 
	C171.622177,135.771698 175.211868,140.975235 179.017441,146.850647 
	C181.210236,150.308746 183.403030,153.766846 185.793610,157.844940 
	C186.443329,158.638992 187.093033,159.433060 187.790237,160.242432 
	C187.790237,160.242432 187.764572,160.202026 187.884995,160.740829 
	C188.154358,160.983810 188.423721,161.226791 188.776443,161.993500 
	C188.945526,162.301422 189.114609,162.609329 189.233795,163.530106 
	C189.783386,164.085785 190.332993,164.641464 190.977173,165.600662 
	C190.977173,165.600662 191.222672,165.934570 191.192947,166.552673 
	C191.744766,167.117172 192.296585,167.681671 192.929688,168.629822 
	C192.929688,168.629822 193.157806,168.948822 193.131134,169.565720 
	C193.675293,170.114975 194.219452,170.664230 194.891953,171.238327 
	C194.891953,171.238327 194.776382,171.177551 194.856903,171.725006 
M95.136856,121.655975 
	C96.417183,122.788956 97.697510,123.921936 99.173256,125.491135 
	C99.365753,125.764366 99.624161,125.941368 100.132317,126.668800 
	C101.226387,127.912842 102.257202,129.219864 103.423943,130.391556 
	C123.383926,150.436325 143.360825,170.464233 163.333740,190.496124 
	C167.093216,194.266678 170.851807,198.038132 174.610580,201.809402 
	C176.449265,203.654205 178.167664,204.699265 179.657974,200.801682 
	C180.086517,200.197525 180.515060,199.593369 181.599228,198.858032 
	C184.237396,196.102707 186.754700,193.216812 189.549011,190.630173 
	C192.148178,188.224213 192.236633,186.708481 189.087662,184.534378 
	C180.206100,178.402435 171.598984,171.874954 162.802261,165.617859 
	C140.902008,150.040207 118.956596,134.526077 96.882080,118.307259 
	C94.787186,117.117760 92.692291,115.928261 90.597397,114.738762 
	C90.239449,115.207077 89.881493,115.675400 89.523544,116.143715 
	C91.340538,117.775108 93.157532,119.406502 95.000565,121.000107 
	C95.000565,121.000107 94.961067,121.023369 95.136856,121.655975 
M138.222137,204.007767 
	C135.484238,203.017700 132.746353,202.027618 129.446426,201.027740 
	C129.586166,201.434738 129.725922,201.841721 130.160492,202.833893 
	C132.046814,204.265213 133.933121,205.696533 136.018082,207.772659 
	C143.971710,213.410477 151.928162,219.044312 159.877060,224.688797 
	C162.003525,226.198792 164.073212,226.325974 165.160934,223.700577 
	C166.155243,221.300705 170.278412,218.266266 166.086029,216.157440 
	C157.270676,211.723175 147.992966,208.208099 138.222137,204.007767 
M325.335266,142.388565 
	C325.747131,137.212845 326.159027,132.037140 326.759094,126.155777 
	C326.780945,125.427795 326.802826,124.699814 327.333588,123.374557 
	C328.525299,113.235847 329.716980,103.097145 330.908661,92.958435 
	C330.368805,92.865555 329.828979,92.772667 329.289124,92.679787 
	C327.528442,99.119408 325.767731,105.559021 323.886261,112.737007 
	C323.559387,114.154831 323.232544,115.572655 322.430969,117.512703 
	C319.427612,127.875542 316.374969,138.224747 313.497223,148.622345 
	C313.209900,149.660324 313.735687,151.875748 314.311035,152.038849 
	C317.132721,152.838806 320.167053,153.654663 322.973999,153.290710 
	C323.857330,153.176193 324.349548,149.432098 324.850189,147.308990 
	C325.027527,146.557022 324.697601,145.685425 324.749756,144.245422 
	C324.769348,143.819489 324.788940,143.393570 325.335266,142.388565 
M400.418640,265.715271 
	C401.156464,266.339935 401.894318,266.964600 401.803101,267.529846 
	C400.223450,267.529846 398.643829,267.529846 396.678040,267.529846 
	C396.678040,283.733673 396.678040,299.164185 396.678040,314.993378 
	C382.184845,314.993378 368.078766,314.993378 353.767822,314.993378 
	C353.767822,324.616608 353.767822,333.830505 353.767822,343.138245 
	C358.663605,343.138245 363.205505,343.138245 368.248962,343.138245 
	C368.248962,338.310608 368.248962,333.893463 368.248962,329.456940 
	C377.988159,329.456940 387.209656,329.456940 396.910034,329.456940 
	C396.910034,334.209595 396.910034,338.638550 396.910034,343.674011 
	C401.175995,343.674011 404.995148,343.940704 408.732635,343.505676 
	C409.803925,343.380951 411.453033,341.232910 411.461823,340.002747 
	C411.626556,317.019531 411.625427,294.034576 411.472717,271.051208 
	C411.464233,269.769836 409.843018,268.499176 408.578033,266.633301 
	C405.638397,265.647949 402.698761,264.662567 399.079651,263.314667 
	C337.600067,243.559769 275.172424,239.865005 211.741180,251.980667 
	C197.714798,254.659790 184.099991,258.364685 171.287277,265.022003 
	C173.646225,265.225494 175.916122,264.889679 178.186691,264.558289 
	C197.763733,261.700806 217.260208,257.967682 236.933609,256.157074 
	C288.968201,251.368149 340.695282,254.922974 392.619019,264.266907 
	C393.428192,264.305115 394.237366,264.343323 395.836243,264.664520 
	C397.219666,264.866333 398.603088,265.068146 400.418640,265.715271 
M410.623901,254.969910 
	C408.358368,248.374802 406.532745,241.588196 403.758270,235.214661 
	C379.934326,180.486450 316.838379,148.909393 256.752258,164.831680 
	C212.644669,176.519821 183.328888,204.820526 167.393829,247.290359 
	C166.160934,250.576218 165.581161,254.107117 164.395752,258.692627 
	C167.212692,257.456268 168.661392,256.685791 170.195557,256.169128 
	C179.469910,253.045746 188.559158,248.827744 198.093643,247.134674 
	C218.196976,243.564850 238.487488,240.879425 258.790466,238.640747 
	C295.964386,234.541794 332.525818,239.242615 368.645752,247.954178 
	C381.396667,251.029495 393.943359,254.949234 406.595520,258.439056 
	C408.849884,259.060883 411.594910,260.137177 410.623901,254.969910 
M179.673538,300.342682 
	C176.283157,303.214661 177.621017,299.453339 177.612900,298.675781 
	C177.507309,288.552551 177.542847,278.427856 177.542847,268.106659 
	C172.528793,267.821411 167.987656,267.563049 163.550995,267.310638 
	C163.550995,291.433289 163.550995,314.430176 163.550995,338.350891 
	C170.533752,330.527252 176.896423,323.398376 183.478760,316.023376 
	C189.654587,323.575439 195.439957,330.656311 201.232437,337.731354 
	C206.224869,343.829224 215.970901,345.922791 224.250885,342.310394 
	C213.930099,330.236145 203.721390,318.292999 193.367233,306.179718 
	C203.721069,293.429535 213.816467,280.997620 224.695892,267.600189 
	C219.639053,267.600189 215.988022,268.034332 212.488815,267.490936 
	C208.059464,266.803040 205.426880,268.537018 202.814438,271.868134 
	C195.421066,281.295380 187.716553,290.478577 179.673538,300.342682 
M284.905334,336.512299 
	C275.911041,313.544525 266.916748,290.576782 257.922455,267.609009 
	C257.469727,267.641968 257.016998,267.674896 256.564270,267.707855 
	C246.880051,292.708252 237.195831,317.708649 227.172424,343.584686 
	C230.063461,343.584686 231.997620,343.584442 233.931778,343.584717 
	C241.771988,343.585846 241.783478,343.590179 244.574448,336.061066 
	C248.781189,324.712677 252.970001,313.357574 257.489960,301.130096 
	C258.583282,304.049377 259.355957,306.053345 260.086426,308.072571 
	C263.938293,318.720520 267.710297,329.398407 271.707672,339.991333 
	C272.237427,341.395203 273.795624,343.243500 275.049042,343.386932 
	C278.923737,343.830292 282.881317,343.548828 287.468262,343.548828 
	C286.502777,340.899506 285.838379,339.076355 284.905334,336.512299 
M325.187683,314.383118 
	C328.241333,322.830261 331.234741,331.300140 334.409332,339.701599 
	C334.925201,341.066772 336.154388,343.065460 337.207001,343.165894 
	C341.400269,343.565857 345.654114,343.330688 350.453094,343.330688 
	C340.455353,317.542877 330.801147,292.641235 321.146942,267.739563 
	C320.742401,267.734863 320.337891,267.730194 319.933350,267.725494 
	C310.154602,292.650421 300.375854,317.575317 290.374725,343.067017 
	C293.918854,343.067017 296.616241,342.750854 299.209747,343.135345 
	C304.051392,343.853119 306.102936,341.774261 307.571411,337.259064 
	C311.417969,325.431641 315.832428,313.788879 320.358429,301.127350 
	C322.144623,305.949097 323.566589,309.787628 325.187683,314.383118 
M283.600311,60.952042 
	C283.029724,70.756813 282.508942,80.564781 281.877899,90.365662 
	C280.681000,108.956253 279.454529,127.545151 278.151855,146.128540 
	C277.949554,149.013947 279.047729,150.004318 281.829712,149.938339 
	C286.824921,149.819870 291.832153,149.739761 296.820465,149.959274 
	C300.242157,150.109863 301.249847,148.652939 300.939758,145.513763 
	C300.138824,137.405136 299.462921,129.284164 298.668213,121.174873 
	C296.316498,97.176964 293.995300,73.175743 291.526764,49.189743 
	C290.590240,40.089245 290.757233,30.757187 286.528778,21.254677 
	C285.575500,34.824429 284.689636,47.434772 283.600311,60.952042 
M486.385040,236.772919 
	C504.238129,228.957779 522.778503,222.655396 539.856628,213.063187 
	C525.837646,215.236130 512.091309,218.015854 498.409210,221.082199 
	C473.125977,226.748489 447.897003,232.657425 422.601685,238.268204 
	C418.708984,239.131668 418.204834,240.942688 419.236176,244.226532 
	C420.530212,248.347000 421.987823,252.456482 422.782806,256.682068 
	C423.607178,261.063843 425.425201,261.684113 429.351196,260.050995 
	C448.074677,252.262344 466.878967,244.668045 486.385040,236.772919 
M358.965973,118.355721 
	C352.429810,130.147751 345.835236,141.908310 339.439117,153.775848 
	C338.724823,155.101242 338.503693,158.160370 339.126343,158.511017 
	C345.247925,161.958282 351.596741,165.001984 358.325165,168.383438 
	C372.290924,128.506119 385.889648,89.676819 399.584900,50.571831 
	C398.251587,50.501373 397.428223,50.285934 397.320007,50.476528 
	C384.609528,72.863068 371.952148,95.279739 358.965973,118.355721 
M49.937946,213.723175 
	C40.466274,211.568085 40.466274,211.568085 36.540787,213.468124 
	C74.846397,229.335434 112.860428,245.081955 151.554291,261.110077 
	C153.294434,255.577271 154.848587,250.552139 156.456467,245.544281 
	C158.555740,239.005875 158.572723,238.894760 151.727951,237.308136 
	C118.068359,229.505814 84.397873,221.750504 49.937946,213.723175 
M184.376434,69.275513 
	C195.813599,101.839630 207.250778,134.403748 218.831360,167.376205 
	C224.707245,164.622330 229.524338,162.388855 234.320160,160.110672 
	C239.891281,157.464142 239.873535,157.452423 236.791718,151.850067 
	C219.702637,120.784355 202.652695,89.696976 185.480423,58.677299 
	C183.755417,55.561256 181.299942,52.849594 179.183456,49.950264 
	C178.730576,50.216778 178.277695,50.483295 177.824814,50.749809 
	C179.909897,56.683998 181.994980,62.618183 184.376434,69.275513 
M452.551514,139.100922 
	C431.501923,154.815781 410.507629,170.605835 389.346466,186.168961 
	C385.952026,188.665421 385.946472,190.304947 388.731201,193.125534 
	C391.522186,195.952469 394.023010,199.110046 396.349304,202.339996 
	C399.023315,206.052689 401.060455,206.245728 404.425354,202.734116 
	C426.185913,180.024796 448.186218,157.545441 470.045349,134.930237 
	C475.004242,129.799820 479.767609,124.476334 484.500671,119.135132 
	C485.472473,118.038490 485.906982,116.465721 486.589111,115.112404 
	C486.305115,114.894402 486.021149,114.676399 485.737152,114.458397 
	C474.862854,122.525528 463.988556,130.592667 452.551514,139.100922 
M366.936554,267.711365 
	C362.533478,267.711365 358.130432,267.711365 353.679901,267.711365 
	C353.679901,278.725739 353.679901,289.291290 353.679901,300.119507 
	C358.524719,300.119507 363.101288,300.119507 367.735321,300.119507 
	C367.735321,289.319641 367.735321,278.730194 366.936554,267.711365 
M249.108459,130.537506 
	C249.693726,138.227859 250.278992,145.918213 250.859558,153.546753 
	C261.541382,153.261093 261.985748,152.570923 259.656708,143.143494 
	C257.265442,133.464310 255.129730,123.722229 252.835632,114.018684 
	C251.222534,107.195717 249.531479,100.391174 247.875244,93.578407 
	C247.541107,93.639137 247.206970,93.699875 246.872833,93.760605 
	C247.602264,105.701088 248.331711,117.641579 249.108459,130.537506 
M374.550537,166.011368 
	C366.477234,174.725845 366.475403,174.728775 375.397675,180.301605 
	C375.641785,180.454086 376.029083,180.377258 376.947113,180.463486 
	C385.768951,166.143524 394.722717,151.609421 403.676483,137.075302 
	C403.008118,136.562790 402.339752,136.050278 401.671387,135.537750 
	C392.771454,145.505585 383.871521,155.473404 374.550537,166.011368 
M439.945068,209.372192 
	C444.812500,206.062332 449.679932,202.752472 454.547333,199.442612 
	C454.378174,198.997314 454.209015,198.552002 454.039856,198.106689 
	C452.207764,198.340927 450.193878,198.161850 448.572388,198.874954 
	C435.950287,204.425888 423.375732,210.087677 410.846741,215.846344 
	C405.341705,218.376602 410.002167,221.309738 410.859009,223.946487 
	C411.809418,226.871201 413.529053,227.140076 416.156616,225.318817 
	C423.803833,220.018250 431.615631,214.955154 439.945068,209.372192 
M284.788422,361.654755 
	C283.428589,359.780243 282.068756,357.905731 279.875000,354.881683 
	C279.875000,361.803131 279.809937,367.088959 279.938416,372.370026 
	C279.960083,373.261414 280.816437,374.132507 281.287170,375.012970 
	C281.870331,374.082550 282.814056,373.204651 282.958801,372.210419 
	C283.229462,370.351227 283.036652,368.424561 283.036652,365.293396 
	C285.540558,368.655548 287.250671,370.951782 289.186829,373.551544 
	C291.158875,370.903015 292.845886,368.637299 295.212341,365.459076 
	C295.212341,368.876770 295.075928,371.038727 295.292419,373.164795 
	C295.360565,373.833832 296.375519,374.406464 296.957123,375.023224 
	C297.450073,374.499786 298.362274,373.983734 298.371674,373.451813 
	C298.474304,367.629547 298.435974,361.804810 298.435974,355.980743 
	C298.123962,355.936157 297.811951,355.891571 297.499939,355.846985 
	C294.850647,359.741852 292.201324,363.636688 289.210846,368.033173 
	C287.609070,365.746124 286.394653,364.012115 284.788422,361.654755 
M355.710938,369.947144 
	C356.797089,366.017181 357.830444,369.507507 358.615356,370.068085 
	C361.073761,371.823822 361.890228,376.259888 366.782166,374.644287 
	C364.033295,371.308868 361.431854,368.152313 358.727325,364.870697 
	C360.994019,361.796387 363.111328,358.924683 365.228668,356.052948 
	C364.767365,355.566803 364.306030,355.080627 363.844727,354.594482 
	C361.312317,356.780273 358.779938,358.966064 356.004913,361.361298 
	C355.868988,360.240509 355.904907,359.547119 355.686981,358.945740 
	C355.235077,357.698730 354.648407,356.500519 354.117157,355.282227 
	C353.475922,356.549438 352.361481,357.787659 352.281769,359.089264 
	C352.038147,363.065796 352.056152,367.073944 352.267517,371.054138 
	C352.339813,372.414795 353.285767,373.729034 353.832550,375.064484 
	C354.455780,373.633087 355.079010,372.201691 355.710938,369.947144 
M189.091644,371.501068 
	C184.669464,372.656891 182.898926,370.744171 183.018524,366.402771 
	C183.117966,362.793701 183.038895,359.179779 183.038895,355.567993 
	C182.535492,355.392181 182.032074,355.216370 181.528671,355.040588 
	C180.955536,356.110474 179.960129,357.152924 179.888489,358.255402 
	C179.674042,361.555969 179.764404,364.881348 179.840576,368.194611 
	C179.942825,372.641449 182.491425,374.794220 186.734238,375.061249 
	C191.228241,375.344116 194.146027,372.949371 194.469650,368.553741 
	C194.700287,365.420807 194.675568,362.251343 194.491287,359.114227 
	C194.416199,357.835968 193.617706,356.600189 193.148346,355.345093 
	C192.505035,356.599182 191.502914,357.794403 191.285751,359.118408 
	C190.636795,363.074890 190.295303,367.081757 189.091644,371.501068 
M318.691101,372.767975 
	C319.815613,373.673706 320.940155,374.579437 322.064667,375.485168 
	C322.371643,375.144196 322.678650,374.803253 322.985626,374.462280 
	C320.311340,368.139221 317.637024,361.816162 314.582611,354.594391 
	C311.495026,361.940765 308.843903,368.248657 305.786835,375.522430 
	C307.822510,374.876556 309.457367,374.828461 309.727234,374.197021 
	C311.707825,369.562775 314.954163,370.820892 318.691101,372.767975 
M337.851807,355.379028 
	C335.735077,355.379028 333.618347,355.379028 330.955841,355.379028 
	C330.955841,360.239807 330.786774,364.694641 331.032623,369.126495 
	C331.143036,371.116669 332.083282,373.060822 332.647003,375.025848 
	C333.198059,373.183014 333.735016,371.335693 334.315582,369.502167 
	C334.402222,369.228485 334.693573,369.019623 335.279114,368.308563 
	C337.943665,370.723053 340.611816,373.140808 343.279968,375.558533 
	C343.630890,375.162018 343.981812,374.765472 344.332733,374.368958 
	C342.999176,372.335571 341.665649,370.302216 340.378082,368.338928 
	C345.270447,362.330048 344.658875,358.296387 337.851807,355.379028 
M227.553680,375.092987 
	C229.983170,375.092987 232.412659,375.092987 234.842133,375.092987 
	C234.959961,374.393372 235.077789,373.693756 235.195618,372.994141 
	C232.361420,372.539154 229.527222,372.084167 226.595062,371.613464 
	C226.595062,369.928497 226.595062,368.218994 226.595062,366.427124 
	C229.081848,366.177277 231.247833,365.959686 233.413818,365.742096 
	C233.481445,365.173676 233.549088,364.605255 233.616730,364.036835 
	C231.214401,363.526917 228.812073,363.016968 226.378036,362.500305 
	C225.571564,354.683258 233.274231,360.745911 235.377945,356.176025 
	C231.122910,356.176025 227.244659,356.176025 223.030746,356.176025 
	C223.030746,361.358368 223.179657,366.677521 222.971985,371.982727 
	C222.857040,374.918976 224.321030,375.323029 227.553680,375.092987 
M208.169632,368.594116 
	C214.249817,367.871674 216.668716,365.478546 216.019653,360.827850 
	C215.336975,355.936340 211.089523,354.225128 203.276672,356.000977 
	C203.276672,359.975403 203.083008,364.084534 203.351608,368.163239 
	C203.504990,370.492035 204.411667,372.771179 204.979141,375.072693 
	C205.768158,373.012482 206.557159,370.952271 208.169632,368.594116 
M249.690491,369.065948 
	C252.101959,370.898560 252.660782,375.273773 257.771454,375.046692 
	C255.862808,372.277161 254.484558,370.277252 252.988312,368.106110 
	C256.643585,365.412415 257.652832,361.901398 255.449570,358.360931 
	C252.772766,354.059479 248.359634,355.214294 243.911301,355.700073 
	C243.911301,361.572662 243.861359,367.200287 243.971893,372.824799 
	C243.986389,373.561768 244.823669,374.282562 245.279846,375.010864 
	C245.872665,374.256317 246.574844,373.562225 247.033218,372.733368 
	C247.756073,371.426147 248.315125,370.028412 249.690491,369.065948 
M380.744995,366.161621 
	C382.512299,366.082428 384.279633,366.003204 386.046936,365.923981 
	C386.175049,365.330261 386.303192,364.736572 386.431305,364.142853 
	C384.201996,363.623138 381.972687,363.103424 379.445190,362.514191 
	C379.445190,361.403900 379.445190,360.023132 379.445190,358.518341 
	C382.449768,358.337799 385.152283,358.175415 387.854767,358.013031 
	C387.872955,357.463013 387.891144,356.912994 387.909332,356.362976 
	C384.345398,354.024170 380.266785,355.726593 376.154053,355.444214 
	C376.154053,362.108093 376.154053,368.342010 376.154053,374.619629 
	C380.189087,374.619629 383.980133,374.619629 387.771179,374.619629 
	C387.851349,374.020416 387.931519,373.421234 388.011719,372.822021 
	C385.130524,372.434021 382.249329,372.045990 378.844391,371.587463 
	C379.221558,369.691528 379.557465,368.002930 380.744995,366.161621 
M170.646027,371.107056 
	C168.409439,367.088684 166.172867,363.070312 163.880798,358.952271 
	C165.818375,358.672272 167.499847,358.429260 170.208435,358.037842 
	C166.833237,354.708740 164.176315,354.164124 161.575256,356.632599 
	C158.881195,359.189270 160.128876,361.712036 162.344604,363.947815 
	C163.510422,365.124176 164.847809,366.172791 165.807266,367.496826 
	C166.472595,368.414948 166.625320,369.704559 167.007065,370.828186 
	C165.821762,371.076752 164.646484,371.418854 163.448318,371.547119 
	C162.292313,371.670868 161.112701,371.573914 159.943451,371.573914 
	C164.581482,376.238556 166.630203,376.056274 170.646027,371.107056 
M408.585999,355.671417 
	C405.799011,355.508026 403.002655,355.134064 400.228485,355.257782 
	C398.474365,355.335968 396.753418,356.156769 395.017578,356.644531 
	C396.510468,357.550171 398.003387,358.455811 400.179932,359.776215 
	C400.179932,362.243835 399.952942,365.557159 400.260864,368.819977 
	C400.461395,370.944763 401.439941,372.996124 402.069916,375.080383 
	C402.621246,372.915222 403.469238,370.774963 403.653809,368.578979 
	C403.925476,365.347107 403.723907,362.075470 403.723907,360.038605 
	C406.128967,358.383209 407.535553,357.415039 408.585999,355.671417 
z"/>
<path fill="#FCCC0A" opacity="1.000000" stroke="none" 
	d="
M410.696899,255.375244 
	C411.594910,260.137177 408.849884,259.060883 406.595520,258.439056 
	C393.943359,254.949234 381.396667,251.029495 368.645752,247.954178 
	C332.525818,239.242615 295.964386,234.541794 258.790466,238.640747 
	C238.487488,240.879425 218.196976,243.564850 198.093643,247.134674 
	C188.559158,248.827744 179.469910,253.045746 170.195557,256.169128 
	C168.661392,256.685791 167.212692,257.456268 164.395752,258.692627 
	C165.581161,254.107117 166.160934,250.576218 167.393829,247.290359 
	C183.328888,204.820526 212.644669,176.519821 256.752258,164.831680 
	C316.838379,148.909393 379.934326,180.486450 403.758270,235.214661 
	C406.532745,241.588196 408.358368,248.374802 410.696899,255.375244 
z"/>
<path fill="#2E3D75" opacity="1.000000" stroke="none" 
	d="
M179.904068,300.050293 
	C187.716553,290.478577 195.421066,281.295380 202.814438,271.868134 
	C205.426880,268.537018 208.059464,266.803040 212.488815,267.490936 
	C215.988022,268.034332 219.639053,267.600189 224.695892,267.600189 
	C213.816467,280.997620 203.721069,293.429535 193.367233,306.179718 
	C203.721390,318.292999 213.930099,330.236145 224.250885,342.310394 
	C215.970901,345.922791 206.224869,343.829224 201.232437,337.731354 
	C195.439957,330.656311 189.654587,323.575439 183.478760,316.023376 
	C176.896423,323.398376 170.533752,330.527252 163.550995,338.350891 
	C163.550995,314.430176 163.550995,291.433289 163.550995,267.310638 
	C167.987656,267.563049 172.528793,267.821411 177.542847,268.106659 
	C177.542847,278.427856 177.507309,288.552551 177.612900,298.675781 
	C177.621017,299.453339 176.283157,303.214661 179.904068,300.050293 
z"/>
<path fill="#2F3E76" opacity="1.000000" stroke="none" 
	d="
M408.972412,267.223511 
	C409.843018,268.499176 411.464233,269.769836 411.472717,271.051208 
	C411.625427,294.034576 411.626556,317.019531 411.461823,340.002747 
	C411.453033,341.232910 409.803925,343.380951 408.732635,343.505676 
	C404.995148,343.940704 401.175995,343.674011 396.910034,343.674011 
	C396.910034,338.638550 396.910034,334.209595 396.910034,329.456940 
	C387.209656,329.456940 377.988159,329.456940 368.248962,329.456940 
	C368.248962,333.893463 368.248962,338.310608 368.248962,343.138245 
	C363.205505,343.138245 358.663605,343.138245 353.767822,343.138245 
	C353.767822,333.830505 353.767822,324.616608 353.767822,314.993378 
	C368.078766,314.993378 382.184845,314.993378 396.678040,314.993378 
	C396.678040,299.164185 396.678040,283.733673 396.678040,267.529846 
	C398.643829,267.529846 400.223450,267.529846 402.615601,267.719879 
	C405.276215,267.681122 407.124329,267.452332 408.972412,267.223511 
z"/>
<path fill="#2E3D75" opacity="1.000000" stroke="none" 
	d="
M285.039673,336.882751 
	C285.838379,339.076355 286.502777,340.899506 287.468262,343.548828 
	C282.881317,343.548828 278.923737,343.830292 275.049042,343.386932 
	C273.795624,343.243500 272.237427,341.395203 271.707672,339.991333 
	C267.710297,329.398407 263.938293,318.720520 260.086426,308.072571 
	C259.355957,306.053345 258.583282,304.049377 257.489960,301.130096 
	C252.970001,313.357574 248.781189,324.712677 244.574448,336.061066 
	C241.783478,343.590179 241.771988,343.585846 233.931778,343.584717 
	C231.997620,343.584442 230.063461,343.584686 227.172424,343.584686 
	C237.195831,317.708649 246.880051,292.708252 256.564270,267.707855 
	C257.016998,267.674896 257.469727,267.641968 257.922455,267.609009 
	C266.916748,290.576782 275.911041,313.544525 285.039673,336.882751 
z"/>
<path fill="#2D3C74" opacity="1.000000" stroke="none" 
	d="
M325.088135,314.004639 
	C323.566589,309.787628 322.144623,305.949097 320.358429,301.127350 
	C315.832428,313.788879 311.417969,325.431641 307.571411,337.259064 
	C306.102936,341.774261 304.051392,343.853119 299.209747,343.135345 
	C296.616241,342.750854 293.918854,343.067017 290.374725,343.067017 
	C300.375854,317.575317 310.154602,292.650421 319.933350,267.725494 
	C320.337891,267.730194 320.742401,267.734863 321.146942,267.739563 
	C330.801147,292.641235 340.455353,317.542877 350.453094,343.330688 
	C345.654114,343.330688 341.400269,343.565857 337.207001,343.165894 
	C336.154388,343.065460 334.925201,341.066772 334.409332,339.701599 
	C331.234741,331.300140 328.241333,322.830261 325.088135,314.004639 
z"/>
<path fill="#324075" opacity="1.000000" stroke="none" 
	d="
M392.096558,263.922211 
	C340.695282,254.922974 288.968201,251.368149 236.933609,256.157074 
	C217.260208,257.967682 197.763733,261.700806 178.186691,264.558289 
	C175.916122,264.889679 173.646225,265.225494 171.287277,265.022003 
	C184.099991,258.364685 197.714798,254.659790 211.741180,251.980667 
	C275.172424,239.865005 337.600067,243.559769 399.500977,263.755188 
	C399.943695,264.553802 399.965088,264.911896 399.986511,265.269989 
	C398.603088,265.068146 397.219666,264.866333 395.189270,264.344910 
	C393.727020,263.990906 392.911804,263.956573 392.096558,263.922211 
z"/>
<path fill="#FDCC08" opacity="1.000000" stroke="none" 
	d="
M180.943604,198.989212 
	C180.515060,199.593369 180.086517,200.197525 179.045258,200.919128 
	C177.145340,200.403442 175.573120,200.055450 174.612610,199.095444 
	C150.286880,174.782959 126.025314,150.406296 101.971268,125.783638 
	C103.654823,126.048164 105.341202,126.263115 106.551559,127.137199 
	C128.798706,143.203552 150.995331,159.339935 173.186523,175.483673 
	C178.589691,179.414383 183.935425,183.424072 190.883484,188.563034 
	C187.346176,191.351059 184.632690,193.279053 182.208160,195.519699 
	C181.404373,196.262558 181.343918,197.809769 180.943604,198.989212 
z"/>
<path fill="#F4D353" opacity="1.000000" stroke="none" 
	d="
M283.702026,60.498581 
	C284.689636,47.434772 285.575500,34.824429 286.528778,21.254677 
	C290.757233,30.757187 290.590240,40.089245 291.526764,49.189743 
	C293.995300,73.175743 296.316498,97.176964 298.668213,121.174873 
	C299.462921,129.284164 300.138824,137.405136 300.939758,145.513763 
	C301.249847,148.652939 300.242157,150.109863 296.820465,149.959274 
	C291.832153,149.739761 286.824921,149.819870 281.829712,149.938339 
	C279.047729,150.004318 277.949554,149.013947 278.151855,146.128540 
	C279.454529,127.545151 280.681000,108.956253 281.877899,90.365662 
	C282.508942,80.564781 283.029724,70.756813 283.702026,60.498581 
M295.989868,110.904686 
	C294.689911,100.247581 293.178070,89.610863 292.150391,78.927574 
	C291.152130,68.549904 290.700043,58.120575 289.883881,47.723682 
	C289.741547,45.910427 288.984253,44.145447 288.510986,42.358166 
	C287.313202,43.236668 287.014679,43.955910 286.968536,44.690987 
	C285.931213,61.220917 284.965637,77.755470 283.879883,94.282158 
	C283.554901,99.228477 282.799530,104.145561 282.431458,109.090202 
	C281.546600,120.977859 280.703247,132.870178 280.080505,144.773041 
	C280.025757,145.819260 281.661285,147.848923 282.600464,147.903809 
	C287.858612,148.211060 293.144012,148.051697 298.632660,148.051697 
	C297.733521,135.549728 296.880493,123.689270 295.989868,110.904686 
z"/>
<path fill="#F4D040" opacity="1.000000" stroke="none" 
	d="
M486.019775,236.888763 
	C466.878967,244.668045 448.074677,252.262344 429.351196,260.050995 
	C425.425201,261.684113 423.607178,261.063843 422.782806,256.682068 
	C421.987823,252.456482 420.530212,248.347000 419.236176,244.226532 
	C418.204834,240.942688 418.708984,239.131668 422.601685,238.268204 
	C447.897003,232.657425 473.125977,226.748489 498.409210,221.082199 
	C512.091309,218.015854 525.837646,215.236130 539.856628,213.063187 
	C522.778503,222.655396 504.238129,228.957779 486.019775,236.888763 
M458.411224,245.993515 
	C480.154602,237.057846 501.897980,228.122162 523.641357,219.186493 
	C523.478699,218.639664 523.316040,218.092834 523.153381,217.546005 
	C489.232361,225.275482 455.311310,233.004944 420.970306,240.830093 
	C422.099365,245.781967 423.051300,250.734955 424.394196,255.579559 
	C425.326385,258.942413 428.206940,258.521332 430.544678,257.565735 
	C439.621185,253.855499 448.609528,249.929626 458.411224,245.993515 
z"/>
<path fill="#F4D24C" opacity="1.000000" stroke="none" 
	d="
M359.128906,118.025253 
	C371.952148,95.279739 384.609528,72.863068 397.320007,50.476528 
	C397.428223,50.285934 398.251587,50.501373 399.584900,50.571831 
	C385.889648,89.676819 372.290924,128.506119 358.325165,168.383438 
	C351.596741,165.001984 345.247925,161.958282 339.126343,158.511017 
	C338.503693,158.160370 338.724823,155.101242 339.439117,153.775848 
	C345.835236,141.908310 352.429810,130.147751 359.128906,118.025253 
M372.494781,97.987808 
	C361.712708,117.430138 350.930664,136.872467 339.752960,157.028198 
	C345.564941,159.919098 351.196350,162.720184 357.158539,165.685806 
	C369.026398,131.820694 380.572205,98.874580 392.118011,65.928474 
	C391.546844,65.714806 390.975677,65.501129 390.404510,65.287453 
	C384.588287,75.992851 378.772064,86.698242 372.494781,97.987808 
M392.778900,61.353184 
	C392.727173,61.730843 392.675476,62.108501 392.623749,62.486164 
	C392.889404,62.486660 393.155029,62.487156 393.420685,62.487652 
	C393.382568,62.107632 393.344452,61.727612 392.778900,61.353184 
z"/>
<path fill="#F4D24F" opacity="1.000000" stroke="none" 
	d="
M50.334587,213.850876 
	C84.397873,221.750504 118.068359,229.505814 151.727951,237.308136 
	C158.572723,238.894760 158.555740,239.005875 156.456467,245.544281 
	C154.848587,250.552139 153.294434,255.577271 151.554291,261.110077 
	C112.860428,245.081955 74.846397,229.335434 36.540787,213.468124 
	C40.466274,211.568085 40.466274,211.568085 50.334587,213.850876 
M109.088242,241.572372 
	C110.356812,241.936554 111.676880,242.177765 112.885918,242.684082 
	C124.240761,247.439316 135.612259,252.158340 146.891174,257.088593 
	C149.482651,258.221375 151.025909,258.015961 151.781281,255.239822 
	C153.108398,250.362503 154.345306,245.460617 155.679428,240.340881 
	C120.652191,232.198837 85.807411,224.099197 50.962631,215.999557 
	C50.852501,216.395294 50.742367,216.791031 50.632236,217.186768 
	C69.884521,225.197784 89.136818,233.208801 109.088242,241.572372 
z"/>
<path fill="#F3D14A" opacity="1.000000" stroke="none" 
	d="
M184.228241,68.913940 
	C181.994980,62.618183 179.909897,56.683998 177.824814,50.749809 
	C178.277695,50.483295 178.730576,50.216778 179.183456,49.950264 
	C181.299942,52.849594 183.755417,55.561256 185.480423,58.677299 
	C202.652695,89.696976 219.702637,120.784355 236.791718,151.850067 
	C239.873535,157.452423 239.891281,157.464142 234.320160,160.110672 
	C229.524338,162.388855 224.707245,164.622330 218.831360,167.376205 
	C207.250778,134.403748 195.813599,101.839630 184.228241,68.913940 
M191.500809,73.132324 
	C190.021484,70.854195 188.542175,68.576073 186.344971,65.192436 
	C186.344971,67.528397 186.057678,68.664604 186.388412,69.576736 
	C190.783188,81.697342 195.434540,93.727188 199.684692,105.897430 
	C206.052948,124.132866 212.130188,142.469772 218.396255,160.741226 
	C219.327637,163.457062 220.735092,164.989502 223.956375,162.852921 
	C226.824539,160.950516 229.999130,159.249527 233.281708,158.303864 
	C236.745773,157.305923 236.638214,155.372665 235.408752,153.125687 
	C227.648071,138.942093 219.722610,124.848785 211.928879,110.683121 
	C205.180649,98.417686 198.534836,86.095901 191.500809,73.132324 
M184.765671,62.352066 
	C184.718536,62.731594 184.671402,63.111122 184.624268,63.490650 
	C184.891083,63.495670 185.157913,63.500694 185.424713,63.505714 
	C185.381332,63.125237 185.337936,62.744759 184.765671,62.352066 
z"/>
<path fill="#F3D24D" opacity="1.000000" stroke="none" 
	d="
M452.832886,138.880356 
	C463.988556,130.592667 474.862854,122.525528 485.737152,114.458397 
	C486.021149,114.676399 486.305115,114.894402 486.589111,115.112404 
	C485.906982,116.465721 485.472473,118.038490 484.500671,119.135132 
	C479.767609,124.476334 475.004242,129.799820 470.045349,134.930237 
	C448.186218,157.545441 426.185913,180.024796 404.425354,202.734116 
	C401.060455,206.245728 399.023315,206.052689 396.349304,202.339996 
	C394.023010,199.110046 391.522186,195.952469 388.731201,193.125534 
	C385.946472,190.304947 385.952026,188.665421 389.346466,186.168961 
	C410.507629,170.605835 431.501923,154.815781 452.832886,138.880356 
M435.031982,168.506989 
	C438.155975,165.075241 441.178864,161.544464 444.424255,158.231674 
	C451.988678,150.510239 459.705444,142.937927 467.255615,135.202789 
	C469.088074,133.325424 470.514435,131.051666 472.127533,128.960175 
	C471.701996,128.554977 471.276428,128.149780 470.850891,127.744583 
	C443.445251,148.243195 416.039642,168.741791 388.204620,189.561584 
	C391.683350,193.562119 394.882233,196.537491 397.192719,200.090561 
	C399.632202,203.842010 401.374481,203.332092 404.050476,200.528687 
	C414.142548,189.956146 424.361938,179.505081 435.031982,168.506989 
z"/>
<path fill="#314076" opacity="1.000000" stroke="none" 
	d="
M367.335938,267.926056 
	C367.735321,278.730194 367.735321,289.319641 367.735321,300.119507 
	C363.101288,300.119507 358.524719,300.119507 353.679901,300.119507 
	C353.679901,289.291290 353.679901,278.725739 353.679901,267.711365 
	C358.130432,267.711365 362.533478,267.711365 367.335938,267.926056 
z"/>
<path fill="#F7CE2D" opacity="1.000000" stroke="none" 
	d="
M249.084808,130.059784 
	C248.331711,117.641579 247.602264,105.701088 246.872833,93.760605 
	C247.206970,93.699875 247.541107,93.639137 247.875244,93.578407 
	C249.531479,100.391174 251.222534,107.195717 252.835632,114.018684 
	C255.129730,123.722229 257.265442,133.464310 259.656708,143.143494 
	C261.985748,152.570923 261.541382,153.261093 250.859558,153.546753 
	C250.278992,145.918213 249.693726,138.227859 249.084808,130.059784 
z"/>
<path fill="#F4D147" opacity="1.000000" stroke="none" 
	d="
M181.271423,198.923615 
	C181.343918,197.809769 181.404373,196.262558 182.208160,195.519699 
	C184.632690,193.279053 187.346176,191.351059 190.883484,188.563034 
	C183.935425,183.424072 178.589691,179.414383 173.186523,175.483673 
	C150.995331,159.339935 128.798706,143.203552 106.551559,127.137199 
	C105.341202,126.263115 103.654823,126.048164 101.673882,125.772476 
	C100.754654,126.019753 100.351570,126.020943 99.948486,126.022141 
	C99.624161,125.941368 99.365753,125.764366 99.050903,124.924469 
	C97.606049,123.246330 96.283562,122.134850 94.961067,121.023369 
	C94.961067,121.023369 95.000565,121.000107 95.037369,120.691422 
	C95.725883,119.917320 96.377594,119.451889 97.029312,118.986465 
	C118.956596,134.526077 140.902008,150.040207 162.802261,165.617859 
	C171.598984,171.874954 180.206100,178.402435 189.087662,184.534378 
	C192.236633,186.708481 192.148178,188.224213 189.549011,190.630173 
	C186.754700,193.216812 184.237396,196.102707 181.271423,198.923615 
z"/>
<path fill="#F9CD1D" opacity="1.000000" stroke="none" 
	d="
M202.196579,166.899216 
	C202.497589,166.999039 202.730530,167.184387 203.039047,167.932877 
	C203.481110,168.595062 203.779556,168.779633 204.077988,168.964218 
	C204.398148,169.066284 204.644073,169.261749 204.931732,170.130341 
	C204.998459,172.682587 204.949188,174.655075 204.899933,176.627594 
	C204.596558,176.815079 204.293182,177.002579 203.419861,177.242294 
	C202.641129,177.613052 202.432343,177.931564 202.223557,178.250092 
	C202.223557,178.250092 202.135834,178.294907 201.840179,178.177155 
	C200.298828,177.416855 199.053131,176.774292 197.807434,176.131744 
	C197.807434,176.131744 197.979980,176.080551 197.947174,175.782074 
	C197.221970,174.669601 196.529572,173.855591 195.837189,173.041580 
	C195.837189,173.041580 195.630020,172.821457 195.651337,172.363037 
	C195.373901,171.662262 195.075134,171.419907 194.776382,171.177551 
	C194.776382,171.177551 194.891953,171.238327 194.884033,170.898590 
	C194.303345,170.022186 193.730576,169.485504 193.157806,168.948822 
	C193.157806,168.948822 192.929688,168.629822 192.925476,168.108887 
	C192.355072,167.036835 191.788864,166.485703 191.222672,165.934570 
	C191.222672,165.934570 190.977173,165.600662 190.960541,165.075958 
	C190.390518,164.006577 189.837112,163.461914 189.283707,162.917252 
	C189.114609,162.609329 188.945526,162.301422 188.742706,161.424316 
	C188.394165,160.637421 188.079361,160.419724 187.764572,160.202026 
	C187.764572,160.202026 187.790237,160.242432 187.828003,159.876221 
	C187.109131,158.748322 186.352478,157.986633 185.595825,157.224945 
	C183.403030,153.766846 181.210236,150.308746 179.122528,146.243896 
	C180.538879,145.704575 181.850128,145.771988 183.161377,145.839401 
	C183.161377,145.839401 183.154938,145.904587 183.194946,146.149323 
	C183.542145,146.562790 183.849335,146.731522 184.156525,146.900253 
	C184.452759,147.020859 184.691925,147.212631 184.962311,148.036896 
	C186.318573,149.749832 187.586548,150.901428 188.854523,152.053009 
	C190.811859,154.156448 192.769196,156.259888 194.884949,159.000031 
	C196.301315,160.779175 197.559250,161.921600 198.817200,163.064011 
	C198.817200,163.064011 199.072739,163.294052 199.160522,163.758301 
	C199.738953,164.514023 200.229568,164.805481 200.720200,165.096939 
	C200.720200,165.096939 201.000259,165.370361 201.116547,165.844254 
	C201.554077,166.511841 201.875320,166.705536 202.196579,166.899216 
z"/>
<path fill="#F3D253" opacity="1.000000" stroke="none" 
	d="
M100.040405,126.345474 
	C100.351570,126.020943 100.754654,126.019753 101.455124,126.029724 
	C126.025314,150.406296 150.286880,174.782959 174.612610,199.095444 
	C175.573120,200.055450 177.145340,200.403442 178.813721,201.079987 
	C178.167664,204.699265 176.449265,203.654205 174.610580,201.809402 
	C170.851807,198.038132 167.093216,194.266678 163.333740,190.496124 
	C143.360825,170.464233 123.383926,150.436325 103.423943,130.391556 
	C102.257202,129.219864 101.226387,127.912842 100.040405,126.345474 
z"/>
<path fill="#F3D24D" opacity="1.000000" stroke="none" 
	d="
M374.761047,165.726288 
	C383.871521,155.473404 392.771454,145.505585 401.671387,135.537750 
	C402.339752,136.050278 403.008118,136.562790 403.676483,137.075302 
	C394.722717,151.609421 385.768951,166.143524 376.947113,180.463486 
	C376.029083,180.377258 375.641785,180.454086 375.397675,180.301605 
	C366.475403,174.728775 366.477234,174.725845 374.761047,165.726288 
M393.826172,150.364349 
	C394.083282,149.408508 394.340424,148.452667 394.597534,147.496826 
	C387.046783,154.546173 380.449768,162.126373 373.762604,169.626114 
	C369.884613,173.975342 370.052948,175.022324 376.061646,177.979462 
	C381.824982,169.021042 387.633514,159.992401 393.826172,150.364349 
z"/>
<path fill="#F4D353" opacity="1.000000" stroke="none" 
	d="
M439.653992,209.585571 
	C431.615631,214.955154 423.803833,220.018250 416.156616,225.318817 
	C413.529053,227.140076 411.809418,226.871201 410.859009,223.946487 
	C410.002167,221.309738 405.341705,218.376602 410.846741,215.846344 
	C423.375732,210.087677 435.950287,204.425888 448.572388,198.874954 
	C450.193878,198.161850 452.207764,198.340927 454.039856,198.106689 
	C454.209015,198.552002 454.378174,198.997314 454.547333,199.442612 
	C449.679932,202.752472 444.812500,206.062332 439.653992,209.585571 
M443.831909,202.601486 
	C432.502075,207.854858 421.172211,213.108215 409.842346,218.361588 
	C409.803406,219.032120 409.764465,219.702652 409.725525,220.373184 
	C411.766388,221.420013 414.703827,223.913208 415.709351,223.289886 
	C425.729858,217.078247 435.432861,210.354340 445.185669,203.716492 
	C445.231781,203.685089 444.706238,202.813797 443.831909,202.601486 
z"/>
<path fill="#FACB10" opacity="1.000000" stroke="none" 
	d="
M326.824707,123.971832 
	C326.802826,124.699814 326.780945,125.427795 326.329102,126.669884 
	C325.535614,132.445206 325.172058,137.706421 324.808502,142.967636 
	C324.788940,143.393570 324.769348,143.819489 324.343018,144.710556 
	C323.394379,147.347031 322.852478,149.518372 322.315857,151.668671 
	C315.391815,151.665558 314.547028,150.668671 316.296417,144.442123 
	C317.724915,139.357834 319.409882,134.339951 320.672455,129.216553 
	C321.661865,125.201576 322.178802,121.070152 322.905701,116.990479 
	C323.232544,115.572655 323.559387,114.154831 324.264771,112.290741 
	C325.316925,111.228386 325.990540,110.612305 326.824707,109.849358 
	C326.824707,114.678406 326.824707,119.325119 326.824707,123.971832 
z"/>
<path fill="#3B4874" opacity="1.000000" stroke="none" 
	d="
M284.984314,361.966431 
	C286.394653,364.012115 287.609070,365.746124 289.210846,368.033173 
	C292.201324,363.636688 294.850647,359.741852 297.499939,355.846985 
	C297.811951,355.891571 298.123962,355.936157 298.435974,355.980743 
	C298.435974,361.804810 298.474304,367.629547 298.371674,373.451813 
	C298.362274,373.983734 297.450073,374.499786 296.957123,375.023224 
	C296.375519,374.406464 295.360565,373.833832 295.292419,373.164795 
	C295.075928,371.038727 295.212341,368.876770 295.212341,365.459076 
	C292.845886,368.637299 291.158875,370.903015 289.186829,373.551544 
	C287.250671,370.951782 285.540558,368.655548 283.036652,365.293396 
	C283.036652,368.424561 283.229462,370.351227 282.958801,372.210419 
	C282.814056,373.204651 281.870331,374.082550 281.287170,375.012970 
	C280.816437,374.132507 279.960083,373.261414 279.938416,372.370026 
	C279.809937,367.088959 279.875000,361.803131 279.875000,354.881683 
	C282.068756,357.905731 283.428589,359.780243 284.984314,361.966431 
z"/>
<path fill="#4D5881" opacity="1.000000" stroke="none" 
	d="
M355.706604,370.358704 
	C355.079010,372.201691 354.455780,373.633087 353.832550,375.064484 
	C353.285767,373.729034 352.339813,372.414795 352.267517,371.054138 
	C352.056152,367.073944 352.038147,363.065796 352.281769,359.089264 
	C352.361481,357.787659 353.475922,356.549438 354.117157,355.282227 
	C354.648407,356.500519 355.235077,357.698730 355.686981,358.945740 
	C355.904907,359.547119 355.868988,360.240509 356.004913,361.361298 
	C358.779938,358.966064 361.312317,356.780273 363.844727,354.594482 
	C364.306030,355.080627 364.767365,355.566803 365.228668,356.052948 
	C363.111328,358.924683 360.994019,361.796387 358.727325,364.870697 
	C361.431854,368.152313 364.033295,371.308868 366.782166,374.644287 
	C361.890228,376.259888 361.073761,371.823822 358.615356,370.068085 
	C357.830444,369.507507 356.797089,366.017181 355.706604,370.358704 
z"/>
<path fill="#414D76" opacity="1.000000" stroke="none" 
	d="
M189.462692,371.285034 
	C190.295303,367.081757 190.636795,363.074890 191.285751,359.118408 
	C191.502914,357.794403 192.505035,356.599182 193.148346,355.345093 
	C193.617706,356.600189 194.416199,357.835968 194.491287,359.114227 
	C194.675568,362.251343 194.700287,365.420807 194.469650,368.553741 
	C194.146027,372.949371 191.228241,375.344116 186.734238,375.061249 
	C182.491425,374.794220 179.942825,372.641449 179.840576,368.194611 
	C179.764404,364.881348 179.674042,361.555969 179.888489,358.255402 
	C179.960129,357.152924 180.955536,356.110474 181.528671,355.040588 
	C182.032074,355.216370 182.535492,355.392181 183.038895,355.567993 
	C183.038895,359.179779 183.117966,362.793701 183.018524,366.402771 
	C182.898926,370.744171 184.669464,372.656891 189.462692,371.285034 
z"/>
<path fill="#FCCB0C" opacity="1.000000" stroke="none" 
	d="
M135.819443,207.127838 
	C133.933121,205.696533 132.046814,204.265213 130.068726,202.240219 
	C129.987473,201.443542 129.997971,201.240540 130.008453,201.037537 
	C132.746353,202.027618 135.484238,203.017700 138.651581,204.485901 
	C148.065613,209.349594 157.050201,213.735123 166.487335,218.341568 
	C164.881073,220.665695 163.716858,222.350189 162.344864,224.335342 
	C159.068802,222.010925 156.325439,219.892853 153.415390,218.035980 
	C147.598404,214.324219 141.690079,210.755569 135.819443,207.127838 
z"/>
<path fill="#414D79" opacity="1.000000" stroke="none" 
	d="
M318.483826,372.422241 
	C314.954163,370.820892 311.707825,369.562775 309.727234,374.197021 
	C309.457367,374.828461 307.822510,374.876556 305.786835,375.522430 
	C308.843903,368.248657 311.495026,361.940765 314.582611,354.594391 
	C317.637024,361.816162 320.311340,368.139221 322.985626,374.462280 
	C322.678650,374.803253 322.371643,375.144196 322.064667,375.485168 
	C320.940155,374.579437 319.815613,373.673706 318.483826,372.422241 
z"/>
<path fill="#404C76" opacity="1.000000" stroke="none" 
	d="
M338.243958,355.474792 
	C344.658875,358.296387 345.270447,362.330048 340.378082,368.338928 
	C341.665649,370.302216 342.999176,372.335571 344.332733,374.368958 
	C343.981812,374.765472 343.630890,375.162018 343.279968,375.558533 
	C340.611816,373.140808 337.943665,370.723053 335.279114,368.308563 
	C334.693573,369.019623 334.402222,369.228485 334.315582,369.502167 
	C333.735016,371.335693 333.198059,373.183014 332.647003,375.025848 
	C332.083282,373.060822 331.143036,371.116669 331.032623,369.126495 
	C330.786774,364.694641 330.955841,360.239807 330.955841,355.379028 
	C333.618347,355.379028 335.735077,355.379028 338.243958,355.474792 
M334.069000,362.341492 
	C335.013367,363.421295 335.957764,364.501099 336.902130,365.580902 
	C338.220764,364.413208 339.539429,363.245483 340.858063,362.077789 
	C339.673431,360.787231 338.717072,358.896698 337.253326,358.339752 
	C334.746277,357.385864 333.757263,359.057983 334.069000,362.341492 
z"/>
<path fill="#414D76" opacity="1.000000" stroke="none" 
	d="
M227.083694,375.092590 
	C224.321030,375.323029 222.857040,374.918976 222.971985,371.982727 
	C223.179657,366.677521 223.030746,361.358368 223.030746,356.176025 
	C227.244659,356.176025 231.122910,356.176025 235.377945,356.176025 
	C233.274231,360.745911 225.571564,354.683258 226.378036,362.500305 
	C228.812073,363.016968 231.214401,363.526917 233.616730,364.036835 
	C233.549088,364.605255 233.481445,365.173676 233.413818,365.742096 
	C231.247833,365.959686 229.081848,366.177277 226.595062,366.427124 
	C226.595062,368.218994 226.595062,369.928497 226.595062,371.613464 
	C229.527222,372.084167 232.361420,372.539154 235.195618,372.994141 
	C235.077789,373.693756 234.959961,374.393372 234.842133,375.092987 
	C232.412659,375.092987 229.983170,375.092987 227.083694,375.092590 
z"/>
<path fill="#4F5A83" opacity="1.000000" stroke="none" 
	d="
M207.757904,368.743103 
	C206.557159,370.952271 205.768158,373.012482 204.979156,375.072693 
	C204.411667,372.771179 203.504990,370.492035 203.351608,368.163239 
	C203.083008,364.084534 203.276672,359.975403 203.276672,356.000977 
	C211.089523,354.225128 215.336975,355.936340 216.019653,360.827850 
	C216.668716,365.478546 214.249817,367.871674 207.757904,368.743103 
M206.750107,360.830261 
	C206.840927,362.251923 206.931763,363.673615 207.096893,366.258270 
	C209.499985,365.016449 211.555664,364.454620 212.730377,363.118347 
	C213.252533,362.524353 212.341156,359.467865 211.467651,359.134430 
	C210.195770,358.648926 208.370392,359.613495 206.750107,360.830261 
z"/>
<path fill="#3D4873" opacity="1.000000" stroke="none" 
	d="
M249.317017,368.867462 
	C248.315125,370.028412 247.756073,371.426147 247.033218,372.733368 
	C246.574844,373.562225 245.872665,374.256317 245.279846,375.010864 
	C244.823669,374.282562 243.986389,373.561768 243.971893,372.824799 
	C243.861359,367.200287 243.911301,361.572662 243.911301,355.700073 
	C248.359634,355.214294 252.772766,354.059479 255.449570,358.360931 
	C257.652832,361.901398 256.643585,365.412415 252.988312,368.106110 
	C254.484558,370.277252 255.862808,372.277161 257.771454,375.046692 
	C252.660782,375.273773 252.101959,370.898560 249.317017,368.867462 
M248.477036,358.198120 
	C247.824478,360.427460 247.171936,362.656769 246.519379,364.886108 
	C247.074005,365.369019 247.628632,365.851929 248.183258,366.334869 
	C250.034866,365.096863 252.900253,364.226929 253.512985,362.539154 
	C254.571732,359.622925 252.237869,358.190582 248.477036,358.198120 
z"/>
<path fill="#F4D24F" opacity="1.000000" stroke="none" 
	d="
M135.918762,207.450256 
	C141.690079,210.755569 147.598404,214.324219 153.415390,218.035980 
	C156.325439,219.892853 159.068802,222.010925 162.344864,224.335342 
	C163.716858,222.350189 164.881073,220.665695 166.487335,218.341568 
	C157.050201,213.735123 148.065613,209.349594 138.993042,204.639893 
	C147.992966,208.208099 157.270676,211.723175 166.086029,216.157440 
	C170.278412,218.266266 166.155243,221.300705 165.160934,223.700577 
	C164.073212,226.325974 162.003525,226.198792 159.877060,224.688797 
	C151.928162,219.044312 143.971710,213.410477 135.918762,207.450256 
z"/>
<path fill="#414C75" opacity="1.000000" stroke="none" 
	d="
M380.319214,366.237976 
	C379.557465,368.002930 379.221558,369.691528 378.844391,371.587463 
	C382.249329,372.045990 385.130524,372.434021 388.011719,372.822021 
	C387.931519,373.421234 387.851349,374.020416 387.771179,374.619629 
	C383.980133,374.619629 380.189087,374.619629 376.154053,374.619629 
	C376.154053,368.342010 376.154053,362.108093 376.154053,355.444214 
	C380.266785,355.726593 384.345398,354.024170 387.909332,356.362976 
	C387.891144,356.912994 387.872955,357.463013 387.854767,358.013031 
	C385.152283,358.175415 382.449768,358.337799 379.445190,358.518341 
	C379.445190,360.023132 379.445190,361.403900 379.445190,362.514191 
	C381.972687,363.103424 384.201996,363.623138 386.431305,364.142853 
	C386.303192,364.736572 386.175049,365.330261 386.046936,365.923981 
	C384.279633,366.003204 382.512299,366.082428 380.319214,366.237976 
z"/>
<path fill="#414D76" opacity="1.000000" stroke="none" 
	d="
M170.492065,371.456787 
	C166.630203,376.056274 164.581482,376.238556 159.943451,371.573914 
	C161.112701,371.573914 162.292313,371.670868 163.448318,371.547119 
	C164.646484,371.418854 165.821762,371.076752 167.007065,370.828186 
	C166.625320,369.704559 166.472595,368.414948 165.807266,367.496826 
	C164.847809,366.172791 163.510422,365.124176 162.344604,363.947815 
	C160.128876,361.712036 158.881195,359.189270 161.575256,356.632599 
	C164.176315,354.164124 166.833237,354.708740 170.208435,358.037842 
	C167.499847,358.429260 165.818375,358.672272 163.880798,358.952271 
	C166.172867,363.070312 168.409439,367.088684 170.492065,371.456787 
z"/>
<path fill="#566186" opacity="1.000000" stroke="none" 
	d="
M408.764038,356.059143 
	C407.535553,357.415039 406.128967,358.383209 403.723907,360.038605 
	C403.723907,362.075470 403.925476,365.347107 403.653809,368.578979 
	C403.469238,370.774963 402.621246,372.915222 402.069946,375.080383 
	C401.439941,372.996124 400.461395,370.944763 400.260864,368.819977 
	C399.952942,365.557159 400.179932,362.243835 400.179932,359.776215 
	C398.003387,358.455811 396.510468,357.550171 395.017578,356.644531 
	C396.753418,356.156769 398.474365,355.335968 400.228485,355.257782 
	C403.002655,355.134064 405.799011,355.508026 408.764038,356.059143 
z"/>
<path fill="#F3D564" opacity="1.000000" stroke="none" 
	d="
M322.668335,117.251587 
	C322.178802,121.070152 321.661865,125.201576 320.672455,129.216553 
	C319.409882,134.339951 317.724915,139.357834 316.296417,144.442123 
	C314.547028,150.668671 315.391815,151.665558 322.315857,151.668671 
	C322.852478,149.518372 323.394379,147.347031 324.267761,145.022064 
	C324.697601,145.685425 325.027527,146.557022 324.850189,147.308990 
	C324.349548,149.432098 323.857330,153.176193 322.973999,153.290710 
	C320.167053,153.654663 317.132721,152.838806 314.311035,152.038849 
	C313.735687,151.875748 313.209900,149.660324 313.497223,148.622345 
	C316.374969,138.224747 319.427612,127.875542 322.668335,117.251587 
z"/>
<path fill="#F3D564" opacity="1.000000" stroke="none" 
	d="
M327.079163,123.673195 
	C326.824707,119.325119 326.824707,114.678406 326.824707,109.849358 
	C325.990540,110.612305 325.316925,111.228386 324.325195,111.921555 
	C325.767731,105.559021 327.528442,99.119408 329.289124,92.679787 
	C329.828979,92.772667 330.368805,92.865555 330.908661,92.958435 
	C329.716980,103.097145 328.525299,113.235847 327.079163,123.673195 
z"/>
<path fill="#F3D564" opacity="1.000000" stroke="none" 
	d="
M183.107544,145.503204 
	C181.850128,145.771988 180.538879,145.704575 179.014587,145.907974 
	C175.211868,140.975235 171.622177,135.771698 168.032501,130.568146 
	C168.448334,130.239563 168.864151,129.910995 169.279984,129.582413 
	C173.871231,134.777267 178.462463,139.972137 183.107544,145.503204 
z"/>
<path fill="#F3D564" opacity="1.000000" stroke="none" 
	d="
M325.071899,142.678101 
	C325.172058,137.706421 325.535614,132.445206 326.235046,127.022705 
	C326.159027,132.037140 325.747131,137.212845 325.071899,142.678101 
z"/>
<path fill="#7C84A3" opacity="1.000000" stroke="none" 
	d="
M400.202576,265.492615 
	C399.965088,264.911896 399.943695,264.553802 399.840698,263.936462 
	C402.698761,264.662567 405.638397,265.647949 408.775208,266.928406 
	C407.124329,267.452332 405.276215,267.681122 403.030151,267.749573 
	C401.894318,266.964600 401.156464,266.339935 400.202576,265.492615 
z"/>
<path fill="#F3D253" opacity="1.000000" stroke="none" 
	d="
M96.955696,118.646866 
	C96.377594,119.451889 95.725883,119.917320 95.024353,120.710320 
	C93.157532,119.406502 91.340538,117.775108 89.523544,116.143715 
	C89.881493,115.675400 90.239449,115.207077 90.597397,114.738762 
	C92.692291,115.928261 94.787186,117.117760 96.955696,118.646866 
z"/>
<path fill="#F4D353" opacity="1.000000" stroke="none" 
	d="
M205.229126,176.651962 
	C204.949188,174.655075 204.998459,172.682587 205.025253,170.351242 
	C209.631668,173.229904 209.677200,173.777664 205.229126,176.651962 
z"/>
<path fill="#F4D353" opacity="1.000000" stroke="none" 
	d="
M188.826660,151.725372 
	C187.586548,150.901428 186.318573,149.749832 185.051697,148.251465 
	C186.301468,149.069046 187.550140,150.233398 188.826660,151.725372 
z"/>
<path fill="#F3D253" opacity="1.000000" stroke="none" 
	d="
M95.048965,121.339676 
	C96.283562,122.134850 97.606049,123.246330 98.953186,124.706367 
	C97.697510,123.921936 96.417183,122.788956 95.048965,121.339676 
z"/>
<path fill="#F4D353" opacity="1.000000" stroke="none" 
	d="
M198.797516,162.735352 
	C197.559250,161.921600 196.301315,160.779175 195.034393,159.294189 
	C196.276230,160.103333 197.527023,161.255020 198.797516,162.735352 
z"/>
<path fill="#F4D353" opacity="1.000000" stroke="none" 
	d="
M197.837463,176.476456 
	C199.053131,176.774292 200.298828,177.416855 201.889435,178.177185 
	C199.574921,181.370667 198.805893,178.844986 197.837463,176.476456 
z"/>
<path fill="#F4D353" opacity="1.000000" stroke="none" 
	d="
M185.694717,157.534943 
	C186.352478,157.986633 187.109131,158.748322 187.804260,159.868561 
	C187.093033,159.433060 186.443329,158.638992 185.694717,157.534943 
z"/>
<path fill="#F4D353" opacity="1.000000" stroke="none" 
	d="
M195.861771,173.375824 
	C196.529572,173.855591 197.221970,174.669601 197.869781,175.828018 
	C197.178925,175.351639 196.532639,174.530853 195.861771,173.375824 
z"/>
<path fill="#F4D353" opacity="1.000000" stroke="none" 
	d="
M193.144470,169.257263 
	C193.730576,169.485504 194.303345,170.022186 194.819855,170.886169 
	C194.219452,170.664230 193.675293,170.114975 193.144470,169.257263 
z"/>
<path fill="#F4D353" opacity="1.000000" stroke="none" 
	d="
M189.258759,163.223679 
	C189.837112,163.461914 190.390518,164.006577 190.913254,164.874191 
	C190.332993,164.641464 189.783386,164.085785 189.258759,163.223679 
z"/>
<path fill="#F4D353" opacity="1.000000" stroke="none" 
	d="
M191.207809,166.243622 
	C191.788864,166.485703 192.355072,167.036835 192.884842,167.917053 
	C192.296585,167.681671 191.744766,167.117172 191.207809,166.243622 
z"/>
<path fill="#7C84A3" opacity="1.000000" stroke="none" 
	d="
M392.357788,264.094543 
	C392.911804,263.956573 393.727020,263.990906 394.794403,264.203369 
	C394.237366,264.343323 393.428192,264.305115 392.357788,264.094543 
z"/>
<path fill="#F4D353" opacity="1.000000" stroke="none" 
	d="
M200.665619,164.815323 
	C200.229568,164.805481 199.738953,164.514023 199.220551,163.919403 
	C199.665543,163.922058 200.138290,164.227875 200.665619,164.815323 
z"/>
<path fill="#F4D353" opacity="1.000000" stroke="none" 
	d="
M194.816650,171.451279 
	C195.075134,171.419907 195.373901,171.662262 195.636703,172.212616 
	C195.352798,172.255402 195.104858,171.990204 194.816650,171.451279 
z"/>
<path fill="#F4D353" opacity="1.000000" stroke="none" 
	d="
M202.490250,178.186584 
	C202.432343,177.931564 202.641129,177.613052 203.156616,177.299042 
	C203.227859,177.576721 202.992401,177.849899 202.490250,178.186584 
z"/>
<path fill="#F4D353" opacity="1.000000" stroke="none" 
	d="
M203.999313,168.710526 
	C203.779556,168.779633 203.481110,168.595062 203.120392,168.144806 
	C203.345596,168.071701 203.633118,168.264267 203.999313,168.710526 
z"/>
<path fill="#F4D353" opacity="1.000000" stroke="none" 
	d="
M202.104248,166.638992 
	C201.875320,166.705536 201.554077,166.511841 201.186188,166.027145 
	C201.430328,165.950348 201.721130,166.164566 202.104248,166.638992 
z"/>
<path fill="#F7CE2D" opacity="1.000000" stroke="none" 
	d="
M129.727448,201.032639 
	C129.997971,201.240540 129.987473,201.443542 129.921326,201.947632 
	C129.725922,201.841721 129.586166,201.434738 129.727448,201.032639 
z"/>
<path fill="#F3D564" opacity="1.000000" stroke="none" 
	d="
M184.072510,146.653961 
	C183.849335,146.731522 183.542145,146.562790 183.188766,146.122498 
	C183.424561,146.036530 183.706528,146.222092 184.072510,146.653961 
z"/>
<path fill="#F4D353" opacity="1.000000" stroke="none" 
	d="
M187.824783,160.471436 
	C188.079361,160.419724 188.394165,160.637421 188.701019,161.162445 
	C188.423721,161.226791 188.154358,160.983810 187.824783,160.471436 
z"/>
<path fill="#FDCC08" opacity="1.000000" stroke="none" 
	d="
M296.008667,111.366753 
	C296.880493,123.689270 297.733521,135.549728 298.632660,148.051697 
	C293.144012,148.051697 287.858612,148.211060 282.600464,147.903809 
	C281.661285,147.848923 280.025757,145.819260 280.080505,144.773041 
	C280.703247,132.870178 281.546600,120.977859 282.431458,109.090202 
	C282.799530,104.145561 283.554901,99.228477 283.879883,94.282158 
	C284.965637,77.755470 285.931213,61.220917 286.968536,44.690987 
	C287.014679,43.955910 287.313202,43.236668 288.510986,42.358166 
	C288.984253,44.145447 289.741547,45.910427 289.883881,47.723682 
	C290.700043,58.120575 291.152130,68.549904 292.150391,78.927574 
	C293.178070,89.610863 294.689911,100.247581 296.008667,111.366753 
z"/>
<path fill="#FDCC07" opacity="1.000000" stroke="none" 
	d="
M458.020935,246.038757 
	C448.609528,249.929626 439.621185,253.855499 430.544678,257.565735 
	C428.206940,258.521332 425.326385,258.942413 424.394196,255.579559 
	C423.051300,250.734955 422.099365,245.781967 420.970306,240.830093 
	C455.311310,233.004944 489.232361,225.275482 523.153381,217.546005 
	C523.316040,218.092834 523.478699,218.639664 523.641357,219.186493 
	C501.897980,228.122162 480.154602,237.057846 458.020935,246.038757 
z"/>
<path fill="#FDCC08" opacity="1.000000" stroke="none" 
	d="
M372.725342,97.695724 
	C378.772064,86.698242 384.588287,75.992851 390.404510,65.287453 
	C390.975677,65.501129 391.546844,65.714806 392.118011,65.928474 
	C380.572205,98.874580 369.026398,131.820694 357.158539,165.685806 
	C351.196350,162.720184 345.564941,159.919098 339.752960,157.028198 
	C350.930664,136.872467 361.712708,117.430138 372.725342,97.695724 
z"/>
<path fill="#FDCC08" opacity="1.000000" stroke="none" 
	d="
M393.042603,61.350388 
	C393.344452,61.727612 393.382568,62.107632 393.420685,62.487656 
	C393.155029,62.487156 392.889404,62.486660 392.623779,62.486164 
	C392.675476,62.108501 392.727173,61.730843 393.042603,61.350388 
z"/>
<path fill="#FDCC08" opacity="1.000000" stroke="none" 
	d="
M108.738678,241.396088 
	C89.136818,233.208801 69.884521,225.197784 50.632236,217.186768 
	C50.742367,216.791031 50.852501,216.395294 50.962631,215.999557 
	C85.807411,224.099197 120.652191,232.198837 155.679428,240.340881 
	C154.345306,245.460617 153.108398,250.362503 151.781281,255.239822 
	C151.025909,258.015961 149.482651,258.221375 146.891174,257.088593 
	C135.612259,252.158340 124.240761,247.439316 112.885918,242.684082 
	C111.676880,242.177765 110.356812,241.936554 108.738678,241.396088 
z"/>
<path fill="#FDCC08" opacity="1.000000" stroke="none" 
	d="
M191.672272,73.465683 
	C198.534836,86.095901 205.180649,98.417686 211.928879,110.683121 
	C219.722610,124.848785 227.648071,138.942093 235.408752,153.125687 
	C236.638214,155.372665 236.745773,157.305923 233.281708,158.303864 
	C229.999130,159.249527 226.824539,160.950516 223.956375,162.852921 
	C220.735092,164.989502 219.327637,163.457062 218.396255,160.741226 
	C212.130188,142.469772 206.052948,124.132866 199.684692,105.897430 
	C195.434540,93.727188 190.783188,81.697342 186.388412,69.576736 
	C186.057678,68.664604 186.344971,67.528397 186.344971,65.192436 
	C188.542175,68.576073 190.021484,70.854195 191.672272,73.465683 
z"/>
<path fill="#FDCC08" opacity="1.000000" stroke="none" 
	d="
M185.030106,62.358173 
	C185.337936,62.744759 185.381332,63.125237 185.424713,63.505714 
	C185.157913,63.500694 184.891083,63.495670 184.624268,63.490646 
	C184.671402,63.111122 184.718536,62.731594 185.030106,62.358173 
z"/>
<path fill="#FDCC08" opacity="1.000000" stroke="none" 
	d="
M434.782806,168.757767 
	C424.361938,179.505081 414.142548,189.956146 404.050476,200.528687 
	C401.374481,203.332092 399.632202,203.842010 397.192719,200.090561 
	C394.882233,196.537491 391.683350,193.562119 388.204620,189.561584 
	C416.039642,168.741791 443.445251,148.243195 470.850891,127.744583 
	C471.276428,128.149780 471.701996,128.554977 472.127533,128.960175 
	C470.514435,131.051666 469.088074,133.325424 467.255615,135.202789 
	C459.705444,142.937927 451.988678,150.510239 444.424255,158.231674 
	C441.178864,161.544464 438.155975,165.075241 434.782806,168.757767 
z"/>
<path fill="#FCCB0C" opacity="1.000000" stroke="none" 
	d="
M393.634094,150.664047 
	C387.633514,159.992401 381.824982,169.021042 376.061646,177.979462 
	C370.052948,175.022324 369.884613,173.975342 373.762604,169.626114 
	C380.449768,162.126373 387.046783,154.546173 394.597534,147.496826 
	C394.340424,148.452667 394.083282,149.408508 393.634094,150.664047 
z"/>
<path fill="#FBCB0D" opacity="1.000000" stroke="none" 
	d="
M444.139801,202.468109 
	C444.706238,202.813797 445.231781,203.685089 445.185669,203.716492 
	C435.432861,210.354340 425.729858,217.078247 415.709351,223.289886 
	C414.703827,223.913208 411.766388,221.420013 409.725525,220.373184 
	C409.764465,219.702652 409.803406,219.032120 409.842346,218.361588 
	C421.172211,213.108215 432.502075,207.854858 444.139801,202.468109 
z"/>
<path fill="#E1E5F1" opacity="1.000000" stroke="none" 
	d="
M334.069092,361.930634 
	C333.757263,359.057983 334.746277,357.385864 337.253326,358.339752 
	C338.717072,358.896698 339.673431,360.787231 340.858063,362.077789 
	C339.539429,363.245483 338.220764,364.413208 336.902130,365.580902 
	C335.957764,364.501099 335.013367,363.421295 334.069092,361.930634 
z"/>
<path fill="#EFF2F8" opacity="1.000000" stroke="none" 
	d="
M206.765564,360.395020 
	C208.370392,359.613495 210.195770,358.648926 211.467651,359.134430 
	C212.341156,359.467865 213.252533,362.524353 212.730377,363.118347 
	C211.555664,364.454620 209.499985,365.016449 207.096893,366.258270 
	C206.931763,363.673615 206.840927,362.251923 206.765564,360.395020 
z"/>
<path fill="#E1E5F1" opacity="1.000000" stroke="none" 
	d="
M248.884308,358.183563 
	C252.237869,358.190582 254.571732,359.622925 253.512985,362.539154 
	C252.900253,364.226929 250.034866,365.096863 248.183258,366.334869 
	C247.628632,365.851929 247.074005,365.369019 246.519379,364.886108 
	C247.171936,362.656769 247.824478,360.427460 248.884308,358.183563 
z"/>
</svg>